<?xml version="1.0" encoding="UTF-8"?>
<svg id="Layer_1" xmlns="http://www.w3.org/2000/svg" version="1.1" viewBox="0 0 100 100">
  <!-- Generator: Adobe Illustrator 30.0.0, SVG Export Plug-In . SVG Version: 2.1.1 Build 123)  -->
  <defs>
    <style>
      .st0 {
        fill: #faf9f6;
      }

      .st1 {
        isolation: isolate;
      }
    </style>
  </defs>
  <rect class="st0" y="0" width="100" height="100" rx="18" ry="18"/>
  <g class="st1">
    <path d="M82.1,28.5l-.5,2c-.6,0-1.3.1-2.2.3-.9.2-1.6.3-2,.5-.8.3-1.4.7-1.7,1.2-.3.6-.6,1.2-.8,1.8l-7.3,31.3c0,.2,0,.3,0,.5,0,.2,0,.4,0,.5,0,.4,0,.8.3,1.1.2.3.5.6.9.9.3.2.9.4,1.8.5.9.2,1.6.3,2.2.3l-.5,2h-18.9l.5-2c.7,0,1.6-.1,2.7-.2,1.1-.1,1.9-.3,2.3-.5.7-.4,1.3-.8,1.7-1.3.4-.5.7-1.1.9-1.8l7.5-32h-.3l-23.4,37.2h-1.4l-5.4-38h-.3l-6.1,26.4c-.2,1.1-.4,2.1-.6,3.1-.2,1-.2,1.8-.2,2.5s0,1.2.2,1.7c.1.5.3.9.6,1.2.4.4,1.1.8,2.3,1.2,1.2.3,2.1.6,2.8.7l-.5,2h-17.4l.5-2c.9-.1,1.9-.2,2.8-.4.9-.2,1.8-.5,2.6-1,.8-.5,1.5-1.4,2.1-2.7.6-1.2,1.1-3.2,1.7-5.8l5.2-22.3c.1-.5.2-.9.2-1.3,0-.4,0-.7,0-1.1,0-.6,0-1.2-.2-1.6-.2-.4-.4-.8-.6-1.1-.5-.6-1.2-1-2.1-1.2s-1.7-.4-2.5-.4l.5-2h14.5l4.7,32.3,16.7-27c.6-1,1.2-2.1,1.7-3.2.5-1.1.8-1.8.9-2.1h14.4Z"/>
  </g>
</svg>